<svg width="261" height="37" viewBox="0 0 261 37" fill="none" xmlns="http://www.w3.org/2000/svg">
<path d="M50.176 32V9.6H64.64V12.896H54.272V19.168H62.656V22.4H54.272V32H50.176ZM79.001 32V9.6H87.225C89.017 9.6 90.489 9.90933 91.641 10.528C92.8143 11.1253 93.689 11.9467 94.265 12.992C94.841 14.016 95.129 15.1573 95.129 16.416C95.129 17.7813 94.7663 19.0293 94.041 20.16C93.337 21.2907 92.2277 22.112 90.713 22.624L95.353 32H90.649L86.489 23.168H83.097V32H79.001ZM83.097 20.16H86.969C88.3343 20.16 89.337 19.8293 89.977 19.168C90.617 18.5067 90.937 17.632 90.937 16.544C90.937 15.4773 90.617 14.624 89.977 13.984C89.3583 13.344 88.345 13.024 86.937 13.024H83.097V20.16ZM110.139 32V9.6H124.763V12.896H114.235V19.04H123.803V22.24H114.235V28.704H124.763V32H110.139ZM139.838 32V9.6H154.462V12.896H143.934V19.04H153.502V22.24H143.934V28.704H154.462V32H139.838ZM169.731 32V9.6H172.867L180.931 25.216L188.931 9.6H192.099V32H189.411V14.4L181.923 28.8H179.907L172.419 14.432V32H169.731ZM206.616 32L214.872 9.6H217.72L225.944 32H223.096L221.048 26.24H211.512L209.432 32H206.616ZM212.312 24.064H220.248L216.28 12.992L212.312 24.064ZM240.474 32V9.6H243.162L255.098 27.552V9.6H257.786V32H255.098L243.162 14.048V32H240.474Z" fill="white"/>
<g clip-path="url(#clip0_5_14)">
<path fill-rule="evenodd" clip-rule="evenodd" d="M34.32 9.6C34.14 8.68 33.32 8 32.36 8H3.64C2.68 8 1.86 8.68 1.68 9.6L0 18V20C0 21.1 0.9 22 2 22V32C2 33.1 2.9 34 4 34H20C21.1 34 22 33.1 22 32V22H30V32C30 33.1 30.9 34 32 34C33.1 34 34 33.1 34 32V22C35.1 22 36 21.1 36 20V18L34.32 9.6ZM18 30H6V22H18V30ZM4 6H32C33.1 6 34 5.1 34 4C34 2.9 33.1 2 32 2H4C2.9 2 2 2.9 2 4C2 5.1 2.9 6 4 6Z" fill="white"/>
</g>
<defs>
<clipPath id="clip0_5_14">
<rect width="36" height="32" fill="white" transform="translate(0 2)"/>
</clipPath>
</defs>
</svg>
